. 
 
http://www.torrenting.com          :     Once & For all ;)


               www . Torrenting . Com 

(((((((((((((= Enjoy No RAR releases =))))))))))))))))))))


...................................NFO:....................................

.                                                                                                     
       
     
     
       
       
     
     
                                         
                                         
                EXVID                    
                                         
         
                                         
         Filled the Archives             
                                         
         
                                         
                With:                    
                                         
         
                                         
                                    
     E240                           
                                    
     SP               (C) 2009      
                                         
     
     
     
                                                                                  
                                                                                   
              Hotel.Swooni.2011.FESTiVAL.DVDRip.XviD-EXViD                          
                                                                                   
                                                                                  
     
                                                                                               
EXViD aims to iNTERNAL those releases which have been lost in the archives.
EXViD aims to PRE non-internal releases which have poor sources and are likely skipped by others. 
http://www.imdb.com/title/tt1825974/
Subtitles: NL FD, FR, EN
Date: 2012.01

Director: Kaat Beels

Genres: Drama

Plot:
6 lives. 24 hours. A hotel in the middle of a heat wave. Anna and Hendrik have it all: a great
son, a good job, a lovely house But the wedding they attend in the hotel forces them to reflect
on the choices they have made. Hendrik is happy. Anna is not. Is that all there is? she wonders.
Especially when her lover shows up, asking her to run off with him to greener pastures...
 
Violette wants to reconcile with her daughter Vicky before she dies. But Vicky, a chambermaid in
the hotel, finds it hard to forget old hurts. She takes care of Joyeux, a young African refugee
hiding in the hotel from the police. She lets her mother believe the boy is her own son. After
all, with her hell have a much better life But then Amadou, Joyeux father, arrives at the hotel
looking for his son. And the lives of all these people will be irrevocably intertwined. At least
until the heat breaks and the rain offers some relief...

Cast:
Natali Broods 	 ... 	 Vicky 
Enrique De Roeck 	 ... 	 Jens 
Sara de Roo 	 ... 	 Anna 
Viviane de Muynck 	 ... 	 Violette 
Alexander Provoost 	 ... 	 Kissing man 
Isaka Sawadogo 	 ... 	 Amadou 
Vigny Tchakouani 	 ... 	 Joyeux 
Geert Van Rampelberg 	 ... 	 Hendrik 
Tibo Vandenborre

Stats:
Format                           : AVI
Format/Info                      : Audio Video Interleave
File size                        : 695 MiB
Duration                         : 1h 25mn
Overall bit rate                 : 1 141 Kbps
Writing application              : VirtualDubMod 1.5.10.2 (build 2540/release)
Writing library                  : VirtualDubMod build 2540/release

Video
ID                               : 0
Format                           : MPEG-4 Visual
Format profile                   : Advanced Simple@L5
Format settings, BVOP            : Yes
Format settings, QPel            : No
Format settings, GMC             : No warppoints
Format settings, Matrix          : Default (H.263)
Muxing mode                      : Packed bitstream
Codec ID                         : XVID
Codec ID/Hint                    : XviD
Duration                         : 1h 25mn
Bit rate                         : 942 Kbps
Width                            : 640 pixels
Height                           : 272 pixels
Display aspect ratio             : 2.35:1
Frame rate                       : 25.000 fps
Color space                      : YUV
Chroma subsampling               : 4:2:0
Bit depth                        : 8 bits
Scan type                        : Progressive
Bits/(Pixel*Frame)               : 0.216
Stream size                      : 574 MiB (83%)
Writing library                  : XviD 62

Audio
ID                               : 1
Format                           : MPEG Audio
Format version                   : Version 1
Format profile                   : Layer 3
Mode                             : Joint stereo
Codec ID                         : 55
Codec ID/Hint                    : MP3
Duration                         : 1h 25mn
Bit rate mode                    : Variable
Bit rate                         : 192 Kbps
Channel(s)                       : 2 channels
Sampling rate                    : 48.0 KHz
Stream size                      : 113 MiB (16%)
Alignment                        : Aligned on interleaves
Interleave, duration             : 24 ms (0.60 video frame)
Interleave, preload duration     : 537 ms
Writing library                  : LAME3.98r
Encoding settings                : -m j -V 4 -q 2 -lowpass 18.6 --abr 192




Release notes:
enjoy!

Looking for:
75TB+ Archives
DUTCH/FLEMiSH Archives
                                                                                                    
Greets: CRBS EPiSODE FiCO FLS iLS KLASSiGER LiPSYNC MADE NODLABS RUNNER SPRiNTER      
   

                                                                    ASCII DONE BY XX^NFO 2oo9